<svg width="48" height="48" viewBox="0 0 48 48" fill="none" xmlns="http://www.w3.org/2000/svg">
<g clip-path="url(#clip0_5252_15566)">
<path d="M39.4 32.2222C42.678 29.14 46 25.4456 46 20.6111C46 17.5317 44.7252 14.5783 42.456 12.4008C40.1868 10.2233 37.1091 9 33.9 9C30.028 9 27.3 10.0556 24 13.2222C20.7 10.0556 17.972 9 14.1 9C10.8909 9 7.8132 10.2233 5.54401 12.4008C3.27482 14.5783 2 17.5317 2 20.6111C2 25.4667 5.3 29.1611 8.6 32.2222L24 47L39.4 32.2222Z" stroke="#424436" stroke-width="2.2" stroke-linecap="round" stroke-linejoin="round"/>
<g clip-path="url(#clip1_5252_15566)">
<circle cx="13" cy="20" r="13" fill="#92A234"/>
<path d="M8.17278 24V16.2L8.85678 16.908H6.39678V15.6H9.73278V24H8.17278ZM14.7711 24.12C14.0751 24.12 13.4711 24.016 12.9591 23.808C12.4471 23.6 12.0511 23.308 11.7711 22.932C11.4911 22.548 11.3511 22.1 11.3511 21.588C11.3511 21.076 11.4871 20.644 11.7591 20.292C12.0311 19.94 12.4231 19.672 12.9351 19.488C13.4471 19.304 14.0591 19.212 14.7711 19.212C15.4831 19.212 16.0951 19.304 16.6071 19.488C17.1271 19.672 17.5231 19.944 17.7951 20.304C18.0751 20.656 18.2151 21.084 18.2151 21.588C18.2151 22.1 18.0711 22.548 17.7831 22.932C17.5031 23.308 17.1031 23.6 16.5831 23.808C16.0711 24.016 15.4671 24.12 14.7711 24.12ZM14.7711 22.896C15.3471 22.896 15.8031 22.776 16.1391 22.536C16.4751 22.296 16.6431 21.964 16.6431 21.54C16.6431 21.124 16.4751 20.796 16.1391 20.556C15.8031 20.316 15.3471 20.196 14.7711 20.196C14.1951 20.196 13.7431 20.316 13.4151 20.556C13.0871 20.796 12.9231 21.124 12.9231 21.54C12.9231 21.964 13.0871 22.296 13.4151 22.536C13.7431 22.776 14.1951 22.896 14.7711 22.896ZM14.7711 20.028C14.1231 20.028 13.5671 19.944 13.1031 19.776C12.6391 19.6 12.2791 19.348 12.0231 19.02C11.7751 18.684 11.6511 18.284 11.6511 17.82C11.6511 17.34 11.7791 16.928 12.0351 16.584C12.2991 16.232 12.6671 15.96 13.1391 15.768C13.6111 15.576 14.1551 15.48 14.7711 15.48C15.3951 15.48 15.9431 15.576 16.4151 15.768C16.8871 15.96 17.2551 16.232 17.5191 16.584C17.7831 16.928 17.9151 17.34 17.9151 17.82C17.9151 18.284 17.7871 18.684 17.5311 19.02C17.2831 19.348 16.9231 19.6 16.4511 19.776C15.9791 19.944 15.4191 20.028 14.7711 20.028ZM14.7711 19.068C15.2671 19.068 15.6591 18.964 15.9471 18.756C16.2351 18.54 16.3791 18.252 16.3791 17.892C16.3791 17.516 16.2311 17.224 15.9351 17.016C15.6391 16.808 15.2511 16.704 14.7711 16.704C14.2911 16.704 13.9071 16.808 13.6191 17.016C13.3311 17.224 13.1871 17.516 13.1871 17.892C13.1871 18.252 13.3271 18.54 13.6071 18.756C13.8951 18.964 14.2831 19.068 14.7711 19.068Z" fill="#FFFFF1"/>
</g>
</g>
<defs>
<clipPath id="clip0_5252_15566">
<rect width="48" height="48" fill="white"/>
</clipPath>
<clipPath id="clip1_5252_15566">
<rect width="26" height="26" fill="white" transform="translate(0 7)"/>
</clipPath>
</defs>
</svg>
