<svg width="151" height="32" viewBox="0 0 151 32" fill="none" xmlns="http://www.w3.org/2000/svg">
<path d="M0 6C0 2.68629 2.68629 0 6 0H145C148.314 0 151 2.68629 151 6V26C151 29.3137 148.314 32 145 32H6C2.68629 32 0 29.3137 0 26V6Z" fill="#92A234"/>
<path d="M18.6794 22V11.44L19.3674 12.192H16.1514V10.8H20.2634V22H18.6794ZM31.2022 22.096C30.3809 22.096 29.6449 21.9147 28.9942 21.552C28.3542 21.1893 27.8475 20.6827 27.4742 20.032C27.1009 19.3813 26.9142 18.624 26.9142 17.76C26.9142 16.896 27.1009 16.144 27.4742 15.504C27.8475 14.8533 28.3542 14.3467 28.9942 13.984C29.6449 13.6213 30.3809 13.44 31.2022 13.44C31.9169 13.44 32.5622 13.6 33.1382 13.92C33.7142 14.24 34.1729 14.72 34.5142 15.36C34.8662 16 35.0422 16.8 35.0422 17.76C35.0422 18.72 34.8715 19.52 34.5302 20.16C34.1995 20.8 33.7462 21.2853 33.1702 21.616C32.5942 21.936 31.9382 22.096 31.2022 22.096ZM31.3302 20.752C31.8635 20.752 32.3435 20.6293 32.7702 20.384C33.2075 20.1387 33.5489 19.792 33.7942 19.344C34.0502 18.8853 34.1782 18.3573 34.1782 17.76C34.1782 17.152 34.0502 16.6293 33.7942 16.192C33.5489 15.744 33.2075 15.3973 32.7702 15.152C32.3435 14.9067 31.8635 14.784 31.3302 14.784C30.7862 14.784 30.3009 14.9067 29.8742 15.152C29.4475 15.3973 29.1062 15.744 28.8502 16.192C28.5942 16.6293 28.4662 17.152 28.4662 17.76C28.4662 18.3573 28.5942 18.8853 28.8502 19.344C29.1062 19.792 29.4475 20.1387 29.8742 20.384C30.3009 20.6293 30.7862 20.752 31.3302 20.752ZM34.2262 22V19.712L34.3222 17.744L34.1622 15.776V10.128H35.6982V22H34.2262ZM43.8684 22V20.208L43.7884 19.872V16.816C43.7884 16.1653 43.5964 15.664 43.2124 15.312C42.8391 14.9493 42.2738 14.768 41.5164 14.768C41.0151 14.768 40.5244 14.8533 40.0444 15.024C39.5644 15.184 39.1591 15.4027 38.8284 15.68L38.1884 14.528C38.6258 14.176 39.1484 13.9093 39.7564 13.728C40.3751 13.536 41.0204 13.44 41.6924 13.44C42.8551 13.44 43.7511 13.7227 44.3804 14.288C45.0098 14.8533 45.3244 15.7173 45.3244 16.88V22H43.8684ZM41.0844 22.096C40.4551 22.096 39.9004 21.9893 39.4204 21.776C38.9511 21.5627 38.5884 21.2693 38.3324 20.896C38.0764 20.512 37.9484 20.08 37.9484 19.6C37.9484 19.1413 38.0551 18.7253 38.2684 18.352C38.4924 17.9787 38.8498 17.68 39.3404 17.456C39.8418 17.232 40.5138 17.12 41.3564 17.12H44.0444V18.224H41.4204C40.6524 18.224 40.1351 18.352 39.8684 18.608C39.6018 18.864 39.4684 19.1733 39.4684 19.536C39.4684 19.952 39.6338 20.288 39.9644 20.544C40.2951 20.7893 40.7538 20.912 41.3404 20.912C41.9164 20.912 42.4178 20.784 42.8444 20.528C43.2818 20.272 43.5964 19.8987 43.7884 19.408L44.0924 20.464C43.8898 20.9653 43.5324 21.3653 43.0204 21.664C42.5084 21.952 41.8631 22.096 41.0844 22.096ZM48.3787 25.2C47.9734 25.2 47.5787 25.1307 47.1947 24.992C46.8107 24.864 46.48 24.672 46.2027 24.416L46.8587 23.264C47.072 23.4667 47.3067 23.6213 47.5627 23.728C47.8187 23.8347 48.0907 23.888 48.3787 23.888C48.752 23.888 49.0614 23.792 49.3067 23.6C49.552 23.408 49.7814 23.0667 49.9947 22.576L50.5227 21.408L50.6827 21.216L54.0107 13.52H55.5147L51.4027 22.848C51.1574 23.4453 50.88 23.9147 50.5707 24.256C50.272 24.5973 49.9414 24.8373 49.5787 24.976C49.216 25.1253 48.816 25.2 48.3787 25.2ZM50.3947 22.272L46.5227 13.52H48.1227L51.4187 21.072L50.3947 22.272ZM64.7491 22.096C63.9277 22.096 63.1917 21.9147 62.5411 21.552C61.9011 21.1893 61.3944 20.6827 61.0211 20.032C60.6477 19.3813 60.4611 18.624 60.4611 17.76C60.4611 16.896 60.6477 16.144 61.0211 15.504C61.3944 14.8533 61.9011 14.3467 62.5411 13.984C63.1917 13.6213 63.9277 13.44 64.7491 13.44C65.4637 13.44 66.1091 13.6 66.6851 13.92C67.2611 14.24 67.7197 14.72 68.0611 15.36C68.4131 16 68.5891 16.8 68.5891 17.76C68.5891 18.72 68.4184 19.52 68.0771 20.16C67.7464 20.8 67.2931 21.2853 66.7171 21.616C66.1411 21.936 65.4851 22.096 64.7491 22.096ZM64.8771 20.752C65.4104 20.752 65.8904 20.6293 66.3171 20.384C66.7544 20.1387 67.0957 19.792 67.3411 19.344C67.5971 18.8853 67.7251 18.3573 67.7251 17.76C67.7251 17.152 67.5971 16.6293 67.3411 16.192C67.0957 15.744 66.7544 15.3973 66.3171 15.152C65.8904 14.9067 65.4104 14.784 64.8771 14.784C64.3331 14.784 63.8477 14.9067 63.4211 15.152C62.9944 15.3973 62.6531 15.744 62.3971 16.192C62.1411 16.6293 62.0131 17.152 62.0131 17.76C62.0131 18.3573 62.1411 18.8853 62.3971 19.344C62.6531 19.792 62.9944 20.1387 63.4211 20.384C63.8477 20.6293 64.3331 20.752 64.8771 20.752ZM67.7731 22V19.712L67.8691 17.744L67.7091 15.776V10.128H69.2451V22H67.7731ZM72.1513 22V13.52H73.6873V22H72.1513ZM72.9193 11.888C72.6206 11.888 72.37 11.792 72.1673 11.6C71.9753 11.408 71.8793 11.1733 71.8793 10.896C71.8793 10.608 71.9753 10.368 72.1673 10.176C72.37 9.984 72.6206 9.888 72.9193 9.888C73.218 9.888 73.4633 9.984 73.6553 10.176C73.858 10.3573 73.9593 10.5867 73.9593 10.864C73.9593 11.152 73.8633 11.3973 73.6713 11.6C73.4793 11.792 73.2286 11.888 72.9193 11.888ZM79.0521 22.096C78.3481 22.096 77.6761 22 77.0361 21.808C76.4067 21.616 75.9107 21.3813 75.5481 21.104L76.1881 19.888C76.5507 20.1333 76.9987 20.3413 77.5321 20.512C78.0654 20.6827 78.6094 20.768 79.1641 20.768C79.8787 20.768 80.3907 20.6667 80.7001 20.464C81.0201 20.2613 81.1801 19.9787 81.1801 19.616C81.1801 19.3493 81.0841 19.1413 80.8921 18.992C80.7001 18.8427 80.4441 18.7307 80.1241 18.656C79.8147 18.5813 79.4681 18.5173 79.0841 18.464C78.7001 18.4 78.3161 18.3253 77.9321 18.24C77.5481 18.144 77.1961 18.016 76.8761 17.856C76.5561 17.6853 76.3001 17.456 76.1081 17.168C75.9161 16.8693 75.8201 16.4747 75.8201 15.984C75.8201 15.472 75.9641 15.024 76.2521 14.64C76.5401 14.256 76.9454 13.9627 77.4681 13.76C78.0014 13.5467 78.6307 13.44 79.3561 13.44C79.9107 13.44 80.4707 13.5093 81.0361 13.648C81.6121 13.776 82.0814 13.9627 82.4441 14.208L81.7881 15.424C81.4041 15.168 81.0041 14.992 80.5881 14.896C80.1721 14.8 79.7561 14.752 79.3401 14.752C78.6681 14.752 78.1667 14.864 77.8361 15.088C77.5054 15.3013 77.3401 15.5787 77.3401 15.92C77.3401 16.208 77.4361 16.432 77.6281 16.592C77.8307 16.7413 78.0867 16.8587 78.3961 16.944C78.7161 17.0293 79.0681 17.104 79.4521 17.168C79.8361 17.2213 80.2201 17.296 80.6041 17.392C80.9881 17.4773 81.3347 17.6 81.6441 17.76C81.9641 17.92 82.2201 18.144 82.4121 18.432C82.6147 18.72 82.7161 19.104 82.7161 19.584C82.7161 20.096 82.5667 20.5387 82.2681 20.912C81.9694 21.2853 81.5481 21.5787 81.0041 21.792C80.4601 21.9947 79.8094 22.096 79.0521 22.096ZM88.3317 22.096C87.4677 22.096 86.6944 21.9093 86.0117 21.536C85.3397 21.1627 84.8117 20.6507 84.4277 20C84.0437 19.3493 83.8517 18.6027 83.8517 17.76C83.8517 16.9173 84.0437 16.1707 84.4277 15.52C84.8117 14.8693 85.3397 14.3627 86.0117 14C86.6944 13.6267 87.4677 13.44 88.3317 13.44C89.0997 13.44 89.7824 13.5947 90.3797 13.904C90.9877 14.2027 91.457 14.6507 91.7877 15.248L90.6197 16C90.3424 15.584 90.001 15.28 89.5957 15.088C89.201 14.8853 88.7744 14.784 88.3157 14.784C87.761 14.784 87.265 14.9067 86.8277 15.152C86.3904 15.3973 86.0437 15.744 85.7877 16.192C85.5317 16.6293 85.4037 17.152 85.4037 17.76C85.4037 18.368 85.5317 18.896 85.7877 19.344C86.0437 19.792 86.3904 20.1387 86.8277 20.384C87.265 20.6293 87.761 20.752 88.3157 20.752C88.7744 20.752 89.201 20.656 89.5957 20.464C90.001 20.2613 90.3424 19.952 90.6197 19.536L91.7877 20.272C91.457 20.8587 90.9877 21.312 90.3797 21.632C89.7824 21.9413 89.0997 22.096 88.3317 22.096ZM97.2833 22.096C96.43 22.096 95.6726 21.9093 95.0113 21.536C94.35 21.1627 93.8273 20.6507 93.4433 20C93.0593 19.3387 92.8673 18.592 92.8673 17.76C92.8673 16.9173 93.0593 16.1707 93.4433 15.52C93.8273 14.8693 94.35 14.3627 95.0113 14C95.6726 13.6267 96.43 13.44 97.2833 13.44C98.126 13.44 98.878 13.6267 99.5393 14C100.211 14.3627 100.734 14.8693 101.107 15.52C101.491 16.16 101.683 16.9067 101.683 17.76C101.683 18.6027 101.491 19.3493 101.107 20C100.734 20.6507 100.211 21.1627 99.5393 21.536C98.878 21.9093 98.126 22.096 97.2833 22.096ZM97.2833 20.752C97.8273 20.752 98.3126 20.6293 98.7393 20.384C99.1766 20.1387 99.518 19.792 99.7633 19.344C100.009 18.8853 100.131 18.3573 100.131 17.76C100.131 17.152 100.009 16.6293 99.7633 16.192C99.518 15.744 99.1766 15.3973 98.7393 15.152C98.3126 14.9067 97.8273 14.784 97.2833 14.784C96.7393 14.784 96.254 14.9067 95.8273 15.152C95.4006 15.3973 95.0593 15.744 94.8033 16.192C94.5473 16.6293 94.4193 17.152 94.4193 17.76C94.4193 18.3573 94.5473 18.8853 94.8033 19.344C95.0593 19.792 95.4006 20.1387 95.8273 20.384C96.254 20.6293 96.7393 20.752 97.2833 20.752ZM107.376 22.096C106.65 22.096 106.01 21.9627 105.456 21.696C104.912 21.4293 104.485 21.024 104.176 20.48C103.877 19.9253 103.728 19.232 103.728 18.4V13.52H105.264V18.224C105.264 19.056 105.461 19.68 105.856 20.096C106.261 20.512 106.826 20.72 107.552 20.72C108.085 20.72 108.549 20.6133 108.944 20.4C109.338 20.176 109.642 19.856 109.856 19.44C110.069 19.0133 110.176 18.5013 110.176 17.904V13.52H111.712V22H110.256V19.712L110.496 20.32C110.218 20.8853 109.802 21.3227 109.248 21.632C108.693 21.9413 108.069 22.096 107.376 22.096ZM119.164 13.44C119.857 13.44 120.465 13.5733 120.988 13.84C121.521 14.1067 121.937 14.512 122.236 15.056C122.534 15.6 122.684 16.288 122.684 17.12V22H121.148V17.296C121.148 16.4747 120.945 15.856 120.54 15.44C120.145 15.024 119.585 14.816 118.86 14.816C118.316 14.816 117.841 14.9227 117.436 15.136C117.03 15.3493 116.716 15.664 116.492 16.08C116.278 16.496 116.172 17.0133 116.172 17.632V22H114.636V13.52H116.108V15.808L115.868 15.2C116.145 14.6453 116.572 14.2133 117.148 13.904C117.724 13.5947 118.396 13.44 119.164 13.44ZM128.438 22.096C127.585 22.096 126.924 21.8667 126.454 21.408C125.985 20.9493 125.75 20.2933 125.75 19.44V11.664H127.286V19.376C127.286 19.8347 127.398 20.1867 127.622 20.432C127.857 20.6773 128.188 20.8 128.614 20.8C129.094 20.8 129.494 20.6667 129.814 20.4L130.294 21.504C130.06 21.7067 129.777 21.856 129.446 21.952C129.126 22.048 128.79 22.096 128.438 22.096ZM124.31 14.784V13.52H129.718V14.784H124.31ZM132.231 18.464L131.943 10.8H133.751L133.447 18.464H132.231ZM132.855 22.096C132.557 22.096 132.306 21.9947 132.103 21.792C131.901 21.5893 131.799 21.3493 131.799 21.072C131.799 20.7733 131.901 20.528 132.103 20.336C132.306 20.144 132.557 20.048 132.855 20.048C133.154 20.048 133.399 20.144 133.591 20.336C133.783 20.528 133.879 20.7733 133.879 21.072C133.879 21.3493 133.783 21.5893 133.591 21.792C133.399 21.9947 133.154 22.096 132.855 22.096Z" fill="white"/>
</svg>
