<svg width="142" height="36" viewBox="0 0 142 36" fill="none" xmlns="http://www.w3.org/2000/svg">
<path d="M6 0.5H136C139.038 0.5 141.5 2.96243 141.5 6V30C141.5 33.0376 139.038 35.5 136 35.5H6C2.96243 35.5 0.5 33.0376 0.5 30V6C0.500001 2.96243 2.96243 0.5 6 0.5Z" stroke="#DDDDDD"/>
<path d="M16.1168 24L21.1888 12.8H22.7728L27.8608 24H26.1808L21.6528 13.696H22.2928L17.7648 24H16.1168ZM18.2768 21.2L18.7088 19.92H25.0128L25.4768 21.2H18.2768ZM29.3076 24V12.128H30.8436V24H29.3076ZM33.7763 24V12.128H35.3123V24H33.7763ZM46.2379 24.096C45.3739 24.096 44.6006 23.9093 43.9179 23.536C43.2459 23.1627 42.7179 22.6507 42.3339 22C41.9499 21.3493 41.7579 20.6027 41.7579 19.76C41.7579 18.9173 41.9499 18.1707 42.3339 17.52C42.7179 16.8693 43.2459 16.3627 43.9179 16C44.6006 15.6267 45.3739 15.44 46.2379 15.44C47.0059 15.44 47.6886 15.5947 48.2859 15.904C48.8939 16.2027 49.3633 16.6507 49.6939 17.248L48.5259 18C48.2486 17.584 47.9073 17.28 47.5019 17.088C47.1073 16.8853 46.6806 16.784 46.2219 16.784C45.6673 16.784 45.1713 16.9067 44.7339 17.152C44.2966 17.3973 43.9499 17.744 43.6939 18.192C43.4379 18.6293 43.3099 19.152 43.3099 19.76C43.3099 20.368 43.4379 20.896 43.6939 21.344C43.9499 21.792 44.2966 22.1387 44.7339 22.384C45.1713 22.6293 45.6673 22.752 46.2219 22.752C46.6806 22.752 47.1073 22.656 47.5019 22.464C47.9073 22.2613 48.2486 21.952 48.5259 21.536L49.6939 22.272C49.3633 22.8587 48.8939 23.312 48.2859 23.632C47.6886 23.9413 47.0059 24.096 46.2379 24.096ZM56.9466 24V22.208L56.8666 21.872V18.816C56.8666 18.1653 56.6746 17.664 56.2906 17.312C55.9172 16.9493 55.3519 16.768 54.5946 16.768C54.0932 16.768 53.6026 16.8533 53.1226 17.024C52.6426 17.184 52.2372 17.4027 51.9066 17.68L51.2666 16.528C51.7039 16.176 52.2266 15.9093 52.8346 15.728C53.4532 15.536 54.0986 15.44 54.7706 15.44C55.9332 15.44 56.8292 15.7227 57.4586 16.288C58.0879 16.8533 58.4026 17.7173 58.4026 18.88V24H56.9466ZM54.1626 24.096C53.5332 24.096 52.9786 23.9893 52.4986 23.776C52.0292 23.5627 51.6666 23.2693 51.4106 22.896C51.1546 22.512 51.0266 22.08 51.0266 21.6C51.0266 21.1413 51.1332 20.7253 51.3466 20.352C51.5706 19.9787 51.9279 19.68 52.4186 19.456C52.9199 19.232 53.5919 19.12 54.4346 19.12H57.1226V20.224H54.4986C53.7306 20.224 53.2132 20.352 52.9466 20.608C52.6799 20.864 52.5466 21.1733 52.5466 21.536C52.5466 21.952 52.7119 22.288 53.0426 22.544C53.3732 22.7893 53.8319 22.912 54.4186 22.912C54.9946 22.912 55.4959 22.784 55.9226 22.528C56.3599 22.272 56.6746 21.8987 56.8666 21.408L57.1706 22.464C56.9679 22.9653 56.6106 23.3653 56.0986 23.664C55.5866 23.952 54.9412 24.096 54.1626 24.096ZM64.1571 24.096C63.3037 24.096 62.6424 23.8667 62.1731 23.408C61.7037 22.9493 61.4691 22.2933 61.4691 21.44V13.664H63.0051V21.376C63.0051 21.8347 63.1171 22.1867 63.3411 22.432C63.5757 22.6773 63.9064 22.8 64.3331 22.8C64.8131 22.8 65.2131 22.6667 65.5331 22.4L66.0131 23.504C65.7784 23.7067 65.4957 23.856 65.1651 23.952C64.8451 24.048 64.5091 24.096 64.1571 24.096ZM60.0291 16.784V15.52H65.4371V16.784H60.0291ZM71.3648 24.096C70.4581 24.096 69.6581 23.9093 68.9648 23.536C68.2821 23.1627 67.7488 22.6507 67.3648 22C66.9915 21.3493 66.8048 20.6027 66.8048 19.76C66.8048 18.9173 66.9861 18.1707 67.3488 17.52C67.7221 16.8693 68.2288 16.3627 68.8688 16C69.5195 15.6267 70.2501 15.44 71.0608 15.44C71.8821 15.44 72.6075 15.6213 73.2368 15.984C73.8661 16.3467 74.3568 16.8587 74.7088 17.52C75.0715 18.1707 75.2528 18.9333 75.2528 19.808C75.2528 19.872 75.2475 19.9467 75.2368 20.032C75.2368 20.1173 75.2315 20.1973 75.2208 20.272H68.0048V19.168H74.4208L73.7968 19.552C73.8075 19.008 73.6955 18.5227 73.4608 18.096C73.2261 17.6693 72.9008 17.3387 72.4848 17.104C72.0795 16.8587 71.6048 16.736 71.0608 16.736C70.5275 16.736 70.0528 16.8587 69.6368 17.104C69.2208 17.3387 68.8955 17.6747 68.6608 18.112C68.4261 18.5387 68.3088 19.0293 68.3088 19.584V19.84C68.3088 20.4053 68.4368 20.912 68.6928 21.36C68.9595 21.7973 69.3275 22.1387 69.7968 22.384C70.2661 22.6293 70.8048 22.752 71.4128 22.752C71.9141 22.752 72.3675 22.6667 72.7728 22.496C73.1888 22.3253 73.5515 22.0693 73.8608 21.728L74.7088 22.72C74.3248 23.168 73.8448 23.5093 73.2688 23.744C72.7035 23.9787 72.0688 24.096 71.3648 24.096ZM81.0977 27.2C80.319 27.2 79.5617 27.088 78.8257 26.864C78.1004 26.6507 77.5084 26.3413 77.0497 25.936L77.7857 24.752C78.1804 25.0933 78.6657 25.36 79.2417 25.552C79.8177 25.7547 80.4204 25.856 81.0497 25.856C82.0524 25.856 82.7884 25.6213 83.2577 25.152C83.727 24.6827 83.9617 23.968 83.9617 23.008V21.216L84.1217 19.536L84.0417 17.84V15.52H85.4977V22.848C85.4977 24.3413 85.1244 25.44 84.3777 26.144C83.631 26.848 82.5377 27.2 81.0977 27.2ZM80.9057 23.648C80.0844 23.648 79.3484 23.4773 78.6977 23.136C78.0577 22.784 77.5457 22.2987 77.1617 21.68C76.7884 21.0613 76.6017 20.3467 76.6017 19.536C76.6017 18.7147 76.7884 18 77.1617 17.392C77.5457 16.7733 78.0577 16.2933 78.6977 15.952C79.3484 15.6107 80.0844 15.44 80.9057 15.44C81.631 15.44 82.2924 15.5893 82.8897 15.888C83.487 16.176 83.9617 16.624 84.3137 17.232C84.6764 17.84 84.8577 18.608 84.8577 19.536C84.8577 20.4533 84.6764 21.216 84.3137 21.824C83.9617 22.432 83.487 22.8907 82.8897 23.2C82.2924 23.4987 81.631 23.648 80.9057 23.648ZM81.0817 22.304C81.647 22.304 82.1484 22.1867 82.5857 21.952C83.023 21.7173 83.3644 21.392 83.6097 20.976C83.8657 20.56 83.9937 20.08 83.9937 19.536C83.9937 18.992 83.8657 18.512 83.6097 18.096C83.3644 17.68 83.023 17.36 82.5857 17.136C82.1484 16.9013 81.647 16.784 81.0817 16.784C80.5164 16.784 80.0097 16.9013 79.5617 17.136C79.1244 17.36 78.7777 17.68 78.5217 18.096C78.2764 18.512 78.1537 18.992 78.1537 19.536C78.1537 20.08 78.2764 20.56 78.5217 20.976C78.7777 21.392 79.1244 21.7173 79.5617 21.952C80.0097 22.1867 80.5164 22.304 81.0817 22.304ZM92.0646 24.096C91.2112 24.096 90.4539 23.9093 89.7926 23.536C89.1312 23.1627 88.6086 22.6507 88.2246 22C87.8406 21.3387 87.6486 20.592 87.6486 19.76C87.6486 18.9173 87.8406 18.1707 88.2246 17.52C88.6086 16.8693 89.1312 16.3627 89.7926 16C90.4539 15.6267 91.2112 15.44 92.0646 15.44C92.9072 15.44 93.6592 15.6267 94.3206 16C94.9926 16.3627 95.5152 16.8693 95.8886 17.52C96.2726 18.16 96.4646 18.9067 96.4646 19.76C96.4646 20.6027 96.2726 21.3493 95.8886 22C95.5152 22.6507 94.9926 23.1627 94.3206 23.536C93.6592 23.9093 92.9072 24.096 92.0646 24.096ZM92.0646 22.752C92.6086 22.752 93.0939 22.6293 93.5206 22.384C93.9579 22.1387 94.2992 21.792 94.5446 21.344C94.7899 20.8853 94.9126 20.3573 94.9126 19.76C94.9126 19.152 94.7899 18.6293 94.5446 18.192C94.2992 17.744 93.9579 17.3973 93.5206 17.152C93.0939 16.9067 92.6086 16.784 92.0646 16.784C91.5206 16.784 91.0352 16.9067 90.6086 17.152C90.1819 17.3973 89.8406 17.744 89.5846 18.192C89.3286 18.6293 89.2006 19.152 89.2006 19.76C89.2006 20.3573 89.3286 20.8853 89.5846 21.344C89.8406 21.792 90.1819 22.1387 90.6086 22.384C91.0352 22.6293 91.5206 22.752 92.0646 22.752ZM98.5888 24V15.52H100.061V17.824L99.9168 17.248C100.151 16.6613 100.546 16.2133 101.101 15.904C101.655 15.5947 102.338 15.44 103.149 15.44V16.928C103.085 16.9173 103.021 16.912 102.957 16.912C102.903 16.912 102.85 16.912 102.797 16.912C101.975 16.912 101.325 17.1573 100.845 17.648C100.365 18.1387 100.125 18.848 100.125 19.776V24H98.5888ZM105.042 24V15.52H106.578V24H105.042ZM105.81 13.888C105.511 13.888 105.261 13.792 105.058 13.6C104.866 13.408 104.77 13.1733 104.77 12.896C104.77 12.608 104.866 12.368 105.058 12.176C105.261 11.984 105.511 11.888 105.81 11.888C106.109 11.888 106.354 11.984 106.546 12.176C106.749 12.3573 106.85 12.5867 106.85 12.864C106.85 13.152 106.754 13.3973 106.562 13.6C106.37 13.792 106.119 13.888 105.81 13.888ZM113.287 24.096C112.38 24.096 111.58 23.9093 110.887 23.536C110.204 23.1627 109.671 22.6507 109.287 22C108.913 21.3493 108.727 20.6027 108.727 19.76C108.727 18.9173 108.908 18.1707 109.271 17.52C109.644 16.8693 110.151 16.3627 110.791 16C111.441 15.6267 112.172 15.44 112.983 15.44C113.804 15.44 114.529 15.6213 115.159 15.984C115.788 16.3467 116.279 16.8587 116.631 17.52C116.993 18.1707 117.175 18.9333 117.175 19.808C117.175 19.872 117.169 19.9467 117.159 20.032C117.159 20.1173 117.153 20.1973 117.143 20.272H109.927V19.168H116.343L115.719 19.552C115.729 19.008 115.617 18.5227 115.383 18.096C115.148 17.6693 114.823 17.3387 114.407 17.104C114.001 16.8587 113.527 16.736 112.983 16.736C112.449 16.736 111.975 16.8587 111.559 17.104C111.143 17.3387 110.817 17.6747 110.583 18.112C110.348 18.5387 110.231 19.0293 110.231 19.584V19.84C110.231 20.4053 110.359 20.912 110.615 21.36C110.881 21.7973 111.249 22.1387 111.719 22.384C112.188 22.6293 112.727 22.752 113.335 22.752C113.836 22.752 114.289 22.6667 114.695 22.496C115.111 22.3253 115.473 22.0693 115.783 21.728L116.631 22.72C116.247 23.168 115.767 23.5093 115.191 23.744C114.625 23.9787 113.991 24.096 113.287 24.096ZM121.74 24.096C121.036 24.096 120.364 24 119.724 23.808C119.094 23.616 118.598 23.3813 118.236 23.104L118.876 21.888C119.238 22.1333 119.686 22.3413 120.22 22.512C120.753 22.6827 121.297 22.768 121.852 22.768C122.566 22.768 123.078 22.6667 123.388 22.464C123.708 22.2613 123.868 21.9787 123.868 21.616C123.868 21.3493 123.772 21.1413 123.58 20.992C123.388 20.8427 123.132 20.7307 122.812 20.656C122.502 20.5813 122.156 20.5173 121.772 20.464C121.388 20.4 121.004 20.3253 120.62 20.24C120.236 20.144 119.884 20.016 119.564 19.856C119.244 19.6853 118.988 19.456 118.796 19.168C118.604 18.8693 118.508 18.4747 118.508 17.984C118.508 17.472 118.652 17.024 118.94 16.64C119.228 16.256 119.633 15.9627 120.156 15.76C120.689 15.5467 121.318 15.44 122.044 15.44C122.598 15.44 123.158 15.5093 123.724 15.648C124.3 15.776 124.769 15.9627 125.132 16.208L124.476 17.424C124.092 17.168 123.692 16.992 123.276 16.896C122.86 16.8 122.444 16.752 122.028 16.752C121.356 16.752 120.854 16.864 120.524 17.088C120.193 17.3013 120.028 17.5787 120.028 17.92C120.028 18.208 120.124 18.432 120.316 18.592C120.518 18.7413 120.774 18.8587 121.084 18.944C121.404 19.0293 121.756 19.104 122.14 19.168C122.524 19.2213 122.908 19.296 123.292 19.392C123.676 19.4773 124.022 19.6 124.332 19.76C124.652 19.92 124.908 20.144 125.1 20.432C125.302 20.72 125.404 21.104 125.404 21.584C125.404 22.096 125.254 22.5387 124.956 22.912C124.657 23.2853 124.236 23.5787 123.692 23.792C123.148 23.9947 122.497 24.096 121.74 24.096Z" fill="#424436"/>
</svg>
